# xmcd
#
# Track frame offsets:
#	182
#	12467
#	24772
#	37345
#	49627
#	62310
#	75680
#	89452
#	100890
#	113330
#	126007
#	138365
#	152410
#
# Disc length: 2198 seconds
#
# Revision: 1
# Processed by: cddbd v1.5.2PL0 Copyright (c) Steve Scherf et al.
# Submitted via: audiograbber 1.83.01
#
DISCID=9408940d
DTITLE=Ismael Rivera - El sonero mayor
DYEAR=1992
DGENRE=Salsa
TTITLE0=maquino landera
TTITLE1=besito de coco
TTITLE2=alegria y bomba
TTITLE3=chongolo
TTITLE4=mi compay chipuco
TTITLE5=el chivo de la campana
TTITLE6=el negro bembon
TTITLE7=saoco
TTITLE8=calypso, bomba y plena
TTITLE9=dejalo que suba
TTITLE10=lo deje llorando
TTITLE11=el chorizo
TTITLE12=cortijo
EXTD=
EXTT0=
EXTT1=
EXTT2=
EXTT3=
EXTT4=
EXTT5=
EXTT6=
EXTT7=
EXTT8=
EXTT9=
EXTT10=
EXTT11=
EXTT12=
PLAYORDER=
